<?xml version="1.0" standalone="no"?>
<!DOCTYPE svg PUBLIC "-//W3C//DTD SVG 20010904//EN"
 "http://www.w3.org/TR/2001/REC-SVG-20010904/DTD/svg10.dtd">
<svg version="1.0" xmlns="http://www.w3.org/2000/svg"
 width="320.000000pt" height="320.000000pt" viewBox="0 0 320.000000 320.000000"
 preserveAspectRatio="xMidYMid meet">
<metadata>
Created by potrace 1.14, written by Peter Selinger 2001-2017
</metadata>
<g transform="translate(0.000000,320.000000) scale(0.100000,-0.100000)"
fill="#000000" stroke="none">
<path d="M260 3169 c-19 -17 -86 -69 -148 -116 l-112 -86 0 -140 0 -139 58 6
c31 4 75 9 96 12 l39 6 -21 -33 c-16 -26 -30 -35 -59 -40 -30 -5 -32 -6 -10
-8 15 0 27 -4 27 -7 0 -3 -29 -65 -66 -137 -49 -99 -64 -138 -62 -164 3 -34 3
-34 60 54 66 100 105 149 114 140 3 -3 -8 -30 -25 -60 -39 -68 -40 -92 -2 -47
41 49 46 34 10 -31 -16 -29 -45 -88 -65 -129 -20 -41 -49 -102 -65 -136 l-29
-61 2 -424 3 -424 20 33 c10 17 22 32 26 32 3 0 35 -44 70 -97 l63 -98 1 -145
c2 -171 25 -280 85 -402 93 -188 209 -290 430 -377 47 -19 119 -51 160 -72 88
-45 182 -79 218 -79 14 0 33 7 43 16 9 8 26 17 36 18 16 3 18 15 21 97 2 52 7
98 12 103 6 6 21 2 40 -12 42 -31 70 -28 158 20 95 52 174 91 325 162 65 30
131 65 148 77 17 12 32 19 35 16 3 -3 1 -22 -5 -43 -15 -56 -32 -261 -29 -341
2 -37 -1 -78 -5 -90 l-8 -23 410 0 c405 0 411 0 399 19 -11 18 2 34 128 163
77 79 156 170 176 203 87 144 105 327 55 585 -15 80 -32 177 -38 215 -5 39
-14 90 -19 115 -5 25 -12 104 -15 175 l-6 130 38 -70 c21 -39 79 -134 128
-213 l90 -143 3 41 c4 52 -21 114 -183 455 -33 69 -52 124 -61 180 -7 44 -22
123 -33 175 -31 150 -36 200 -20 200 8 0 55 -11 104 -24 50 -13 114 -27 143
-31 l52 -7 0 236 0 237 -62 72 c-35 40 -117 137 -183 216 -151 180 -143 170
-194 226 -70 77 -58 43 16 -41 88 -101 124 -150 116 -158 -4 -3 0 -6 7 -6 11
0 11 -3 2 -12 -10 -10 -15 -10 -22 2 -8 12 -11 13 -19 1 -6 -10 -22 3 -61 50
-59 71 -95 86 -88 38 4 -26 2 -28 -16 -23 -12 4 -29 13 -39 22 -27 24 -29 9
-4 -41 22 -43 22 -45 4 -35 -22 12 -19 4 22 -51 42 -56 -20 -10 -204 153 -156
138 -160 139 -40 11 91 -97 187 -219 197 -248 6 -18 20 -42 32 -55 17 -19 18
-24 6 -32 -9 -6 -20 -4 -29 3 -9 7 -24 19 -35 27 -10 8 -27 23 -37 32 -31 29
-32 -8 -2 -71 43 -90 46 -100 22 -71 -62 73 -88 100 -97 100 -6 0 -13 6 -15
13 -3 6 -6 7 -6 2 -1 -6 10 -22 24 -37 30 -33 34 -53 6 -39 -10 6 -22 7 -26 3
-5 -4 -5 -1 -1 6 4 7 2 12 -5 12 -18 0 -69 61 -69 82 0 10 -4 18 -9 18 -5 0
-12 15 -16 33 -4 17 -14 42 -22 55 -43 68 37 15 87 -58 38 -54 60 -76 60 -59
0 8 -18 37 -40 64 -22 28 -49 69 -60 93 -11 24 -34 64 -51 89 -18 25 -33 55
-34 67 -1 12 -10 40 -21 63 l-19 43 -641 0 -641 0 -29 -25 c-16 -14 -32 -25
-37 -25 -4 0 -31 -19 -60 -42 -70 -58 -146 -105 -181 -114 -26 -6 -28 -5 -21
16 6 20 5 22 -17 17 -38 -10 -40 2 -8 37 17 17 30 34 30 38 0 3 -35 -13 -78
-38 -52 -29 -94 -45 -126 -49 l-48 -5 76 75 c81 80 85 93 15 45 -24 -16 -48
-30 -52 -30 -12 0 3 41 25 69 30 40 13 36 -60 -13 -38 -25 -72 -46 -76 -46 -3
0 -6 14 -6 30 0 17 4 30 9 30 5 0 11 7 15 15 4 12 -3 15 -32 15 -26 -1 -47 -9
-72 -31z m2055 -140 c20 -28 35 -53 32 -55 -3 -3 -51 59 -71 94 -18 31 6 7 39
-39z m-1307 -131 c-84 -142 -115 -221 -148 -373 -20 -91 -54 -226 -74 -300
-12 -41 -15 -45 -15 -21 -1 22 -4 27 -12 19 -6 -6 -19 -9 -29 -6 -25 7 -33 77
-14 133 8 24 13 52 11 61 -3 10 1 20 8 23 7 2 16 22 20 43 3 22 19 66 35 99
20 42 25 63 18 72 -6 7 -8 15 -4 19 3 3 6 1 6 -6 0 -7 5 -9 11 -6 6 4 8 14 5
22 -3 8 -1 11 4 8 6 -3 13 2 17 12 4 9 23 42 43 73 19 30 42 67 49 83 16 29
79 97 92 97 5 0 -6 -24 -23 -52z m233 27 c13 9 13 7 -27 -107 -41 -117 -95
-310 -89 -317 3 -2 8 10 11 27 4 17 11 30 16 29 5 -1 22 33 38 76 28 75 78
167 91 167 4 0 -5 -33 -18 -72 -27 -80 -53 -192 -52 -223 0 -11 26 34 58 100
61 124 102 190 81 130 l-11 -30 25 30 c13 17 33 41 45 55 l22 25 -12 -25 c-9
-18 -9 -25 0 -28 6 -2 11 -11 12 -20 0 -13 3 -12 11 5 6 12 17 24 25 27 11 5
9 -2 -5 -27 -72 -117 -112 -195 -112 -219 0 -5 21 15 47 44 25 29 52 54 60 56
7 2 11 7 9 11 -3 4 3 7 13 7 15 0 16 -4 5 -26 -7 -14 -14 -43 -17 -65 -3 -22
-8 -49 -12 -60 -9 -25 -36 -87 -43 -99 -3 -5 2 -7 10 -4 13 6 13 -2 -3 -54
-21 -65 -21 -66 -104 -243 -42 -90 -55 -110 -50 -80 4 22 18 67 32 100 40 97
40 98 9 84 -14 -7 -28 -10 -31 -7 -3 3 1 36 9 74 7 38 13 70 11 72 -2 2 -49
-78 -97 -168 -14 -28 -28 -44 -31 -38 -9 24 -35 -24 -52 -95 -13 -52 -16 -93
-11 -185 3 -64 6 -127 6 -139 1 -37 29 -105 63 -149 36 -49 47 -55 41 -21 -3
12 7 0 21 -26 15 -27 24 -51 22 -53 -9 -10 -109 101 -133 148 -33 65 -53 175
-49 265 2 41 19 130 41 209 31 116 35 141 26 168 -10 29 -10 53 3 129 9 55
-13 16 -24 -44 -11 -52 -14 -58 -25 -44 -10 14 -15 4 -30 -62 -24 -104 -24
-104 -25 -59 -1 22 -4 36 -8 32 -13 -13 -31 101 -26 167 2 34 8 88 14 121 6
32 8 60 5 63 -10 10 -25 -76 -37 -207 -11 -126 -19 -177 -19 -118 0 14 -7 31
-14 38 -8 6 -22 34 -31 61 -14 42 -15 62 -6 132 15 107 53 232 103 332 66 133
122 169 63 41 -14 -30 -25 -58 -25 -62 0 -4 -6 -15 -14 -23 -15 -18 -46 -106
-46 -130 1 -9 9 5 19 31 23 57 51 105 110 183 64 86 95 117 99 99 2 -8 8 -12
13 -9z m1684 -14 c-3 -6 -11 -8 -17 -5 -6 4 -5 9 3 15 16 10 23 4 14 -10z
m-741 -5 c13 5 52 -85 114 -261 41 -118 51 -133 49 -72 -1 25 -5 40 -8 35 -4
-6 -12 11 -17 38 -12 57 -1 79 18 34 16 -38 34 -51 20 -14 -6 15 -9 29 -6 31
7 8 28 -66 21 -77 -3 -5 -2 -10 3 -10 12 0 35 -63 68 -190 14 -52 30 -111 35
-130 5 -19 12 -51 14 -70 l5 -35 -15 28 c-9 15 -20 27 -24 27 -5 0 -12 11 -15
25 -4 14 -13 25 -20 25 -8 0 -17 11 -20 24 -3 14 -19 34 -35 45 -27 19 -29 20
-36 4 -15 -41 -90 127 -135 302 -11 44 -27 104 -35 132 -8 30 -11 69 -8 90 4
21 8 32 10 26 3 -7 10 -10 17 -7z m796 -70 c0 -5 -11 4 -25 20 -14 16 -25 33
-25 38 0 5 11 -4 25 -20 14 -16 25 -33 25 -38z m110 -103 c0 -4 -10 3 -22 14
-13 11 -33 28 -45 38 -12 10 -20 22 -17 27 3 4 0 8 -6 8 -6 0 -8 4 -5 10 5 9
95 -82 95 -97z m-779 -16 c-10 -9 -11 -8 -5 6 3 10 9 15 12 12 3 -3 0 -11 -7
-18z m-327 -39 c11 -13 30 -50 107 -215 21 -44 42 -83 46 -86 17 -11 6 100
-16 166 -23 69 -24 103 -1 47 12 -29 30 -41 30 -20 0 6 9 10 19 10 33 0 142
-250 140 -323 0 -27 -2 -29 -9 -12 -9 19 -9 19 -16 -3 -6 -22 -7 -21 -35 10
-16 18 -36 49 -46 68 -17 32 -43 67 -43 57 0 -2 9 -26 21 -52 24 -53 19 -73
-6 -25 -20 39 -28 35 -15 -10 12 -43 3 -56 -21 -28 -14 17 -17 18 -13 6 4 -11
1 -18 -6 -18 -6 0 -8 -5 -4 -11 4 -8 0 -8 -15 0 -11 6 -31 29 -43 51 -22 38
-48 58 -30 23 5 -10 22 -51 36 -92 20 -55 23 -71 11 -61 -13 11 -14 10 -9 -4
11 -28 -14 -18 -40 17 -46 61 -106 184 -126 258 -12 47 -19 63 -19 45 -2 -57
-19 -11 -26 64 -6 71 -5 73 9 44 15 -35 36 -53 36 -32 0 13 36 -48 70 -119 11
-24 23 -43 26 -43 3 0 3 4 0 9 -6 9 -35 174 -41 228 -3 29 -2 31 12 18 22 -23
25 -18 8 15 -16 31 -12 39 9 18z m-235 -175 c19 -54 91 -339 107 -427 6 -34 5
-38 -12 -33 -92 28 -224 31 -240 6 -4 -7 20 -8 68 -4 52 5 87 2 122 -9 27 -8
53 -13 57 -10 19 12 34 -213 19 -297 -18 -106 -13 -99 -88 -98 -91 3 -173 -14
-169 -34 1 -6 -12 -16 -30 -22 -38 -13 -53 -25 -30 -25 10 0 17 -7 17 -15 0
-8 9 -15 20 -15 13 0 18 -5 14 -15 -8 -20 2 -19 41 5 28 17 34 18 51 5 19 -14
18 -15 -3 -21 -15 -4 -24 -19 -32 -49 -14 -55 -14 -142 -1 -150 6 -3 10 3 10
14 0 25 8 26 31 5 14 -13 16 -21 8 -36 -6 -11 -17 -17 -25 -14 -8 3 -14 1 -14
-5 0 -5 7 -12 15 -15 8 -4 15 -12 15 -19 0 -20 65 -72 100 -80 47 -10 48 2 0
16 -24 7 -54 27 -72 48 l-32 36 31 3 c17 2 37 10 43 18 16 19 97 18 134 -1 16
-9 35 -14 43 -11 7 3 15 1 18 -4 4 -6 1 -10 -4 -10 -6 0 -11 -4 -11 -10 0 -5
12 -10 28 -10 19 0 33 9 47 30 23 34 35 38 36 13 0 -11 7 -3 16 17 9 22 13 53
11 82 l-5 47 28 -22 c23 -19 28 -31 31 -82 l3 -60 24 63 c13 34 27 62 32 62
11 0 11 5 -2 -65 -12 -64 -53 -155 -93 -201 -13 -17 -49 -43 -80 -58 -31 -16
-56 -30 -56 -32 0 -2 21 -1 46 3 l47 6 -7 -37 -7 -37 33 38 c58 67 94 117 124
173 16 30 38 65 49 78 11 13 30 64 42 115 12 51 22 81 22 67 1 -48 -50 -226
-89 -308 -26 -54 -59 -103 -95 -141 l-56 -59 45 16 c24 9 42 20 40 24 -3 4 4
12 15 18 22 11 40 39 46 70 4 23 81 157 93 162 7 3 35 58 80 158 10 23 10 22
5 -10 -3 -19 -10 -39 -14 -45 -5 -5 -9 -19 -9 -32 0 -13 -4 -23 -8 -23 -5 0
-14 -25 -21 -55 -7 -30 -17 -55 -22 -55 -5 0 -8 -3 -7 -7 8 -31 -129 -203
-162 -203 -7 0 -20 -8 -29 -18 -9 -11 -27 -24 -39 -31 -41 -22 -16 -23 29 -2
49 24 49 24 49 12 0 -8 -66 -64 -135 -116 l-20 -15 20 7 c31 10 84 51 153 117
l64 61 -63 -105 c-116 -194 -268 -319 -539 -444 -58 -26 -144 -70 -191 -96
-147 -80 -188 -87 -260 -42 -24 15 -100 59 -169 97 -232 127 -281 160 -371
252 -48 48 -97 104 -110 124 -13 20 -37 53 -52 73 -39 48 -31 61 18 27 71 -48
78 -42 23 21 -68 79 -82 102 -119 191 -17 40 -33 78 -36 86 -5 11 -2 13 11 8
15 -6 17 -3 13 15 -9 36 -25 166 -31 243 -6 74 -6 74 39 0 l24 -40 1 71 c0 60
3 74 22 91 21 19 61 43 71 43 7 0 2 -58 -6 -66 -11 -11 -8 -147 3 -164 7 -11
8 -6 4 18 -4 21 -3 32 5 32 6 0 14 -13 18 -30 3 -16 12 -30 19 -30 8 0 11 -6
7 -17 -5 -13 -3 -15 13 -8 44 19 83 17 114 -5 25 -18 31 -19 36 -6 3 8 12 12
20 9 11 -4 12 -8 3 -19 -7 -8 -9 -18 -5 -22 4 -4 20 8 35 27 20 24 30 30 33
20 10 -30 31 37 30 96 -1 33 -2 70 -2 83 0 35 -24 74 -68 114 -35 32 -93 56
-199 84 -7 2 -20 29 -29 61 -15 51 -15 73 -6 172 6 63 16 119 21 124 6 6 35
12 64 15 l54 4 12 -63 c13 -72 65 -239 89 -284 26 -53 71 -102 120 -134 56
-36 178 -87 229 -97 39 -7 75 -41 124 -113 l31 -46 -6 43 c-4 29 -3 41 4 37
13 -8 13 -7 -5 47 -11 30 -15 72 -13 124 l3 79 18 -36 c10 -20 29 -46 42 -59
l23 -22 -24 49 c-43 89 -26 211 51 358 86 164 127 239 140 255 6 8 33 65 59
125 26 61 57 132 69 160 22 50 46 85 58 85 4 0 16 -26 28 -57z m-899 -148 c-7
-30 -15 -53 -17 -51 -3 2 1 29 8 60 8 30 15 53 18 51 2 -3 -2 -30 -9 -60z m35
8 c-10 -71 -16 -93 -26 -93 -5 0 -7 12 -4 28 23 108 43 151 30 65z m-200 -120
l0 -158 -37 -3 c-21 -2 -38 1 -38 6 0 5 -2 25 -5 43 -4 26 -3 29 4 14 8 -17 9
-14 9 15 0 19 9 62 20 95 11 33 25 79 31 103 7 23 13 42 14 42 2 0 3 -71 2
-157z m-425 101 c0 -8 8 -22 19 -33 10 -10 21 -25 24 -32 5 -12 7 -12 15 0 8
11 11 10 16 -6 5 -16 -16 -104 -42 -172 -12 -32 23 12 37 47 23 55 24 28 2
-57 -25 -102 -49 -154 -67 -147 -8 3 -20 -7 -30 -25 -20 -39 -29 -32 -10 7 21
42 31 89 18 80 -7 -4 -8 7 -5 34 6 43 -9 55 -22 18 -7 -22 -8 -21 -12 6 -3 16
-14 37 -26 47 -21 17 -22 16 -34 -13 -7 -17 -13 -38 -13 -48 0 -10 -7 -21 -16
-24 -19 -7 -18 -2 21 129 28 94 56 164 81 203 12 19 18 21 30 11 8 -6 14 -18
14 -25z m304 -70 c-13 -47 -29 -119 -35 -160 -13 -73 -13 -74 -56 -95 -24 -11
-45 -25 -49 -30 -8 -14 3 -11 46 11 21 11 41 17 43 12 2 -4 4 -55 5 -113 1
-58 6 -119 12 -135 10 -24 9 -31 -5 -39 -10 -5 -27 -18 -39 -28 -20 -17 -20
-17 9 -2 17 8 36 15 43 15 11 0 13 -4 16 -29 2 -20 -75 -61 -114 -61 l-40 0
-2 58 -2 57 -3 -53 c-6 -76 -27 -63 -31 18 -7 137 39 302 137 499 68 137 81
161 85 161 1 0 -7 -39 -20 -86z m862 -51 c-27 -51 -35 -38 -12 18 16 39 29 54
34 40 2 -5 -8 -31 -22 -58z m534 6 c0 -3 23 -48 50 -99 51 -94 92 -184 104
-230 4 -14 -18 23 -49 83 -62 121 -82 144 -30 35 19 -40 35 -78 35 -84 0 -7
-26 5 -58 26 l-59 39 -12 118 c-7 65 -14 129 -17 143 l-5 25 21 -25 c11 -14
20 -28 20 -31z m-484 -14 c-8 -26 -12 -30 -17 -18 -7 20 12 77 21 62 4 -5 2
-25 -4 -44z m404 -12 c0 -24 -3 -33 -9 -25 -7 12 -4 62 5 62 2 0 4 -17 4 -37z
m-1103 -105 c-2 -13 -4 -3 -4 22 0 25 2 35 4 23 2 -13 2 -33 0 -45z m187 -345
c3 -4 6 0 6 8 0 8 21 -24 45 -70 25 -46 64 -106 86 -133 23 -27 39 -51 36 -55
-8 -7 -124 58 -158 89 -61 55 -88 118 -109 257 -10 72 1 259 18 286 3 5 21
-77 38 -183 17 -106 34 -196 38 -199z m-367 325 c-3 -7 -5 -2 -5 12 0 14 2 19
5 13 2 -7 2 -19 0 -25z m-251 -44 c-4 -20 -10 -34 -12 -31 -3 3 -2 21 2 41 3
21 9 35 11 32 3 -3 2 -21 -1 -42z m1951 -46 c-3 -7 -5 -2 -5 12 0 14 2 19 5
13 2 -7 2 -19 0 -25z m-302 -38 c17 -12 44 -27 62 -35 17 -7 39 -27 47 -44 33
-64 67 -169 73 -228 3 -34 10 -60 14 -57 12 7 17 -11 21 -83 3 -49 1 -63 -10
-63 -13 0 -91 60 -92 71 0 3 18 12 41 19 39 13 69 37 33 27 -76 -22 -107 -19
-168 12 -34 17 -80 36 -103 41 -45 11 -54 28 -29 53 21 20 43 102 57 211 7 53
15 96 18 96 3 0 20 -9 36 -20z m312 -2 c-3 -8 -6 -5 -6 6 -1 11 2 17 5 13 3
-3 4 -12 1 -19z m-1050 -20 c-3 -8 -6 -5 -6 6 -1 11 2 17 5 13 3 -3 4 -12 1
-19z m653 -28 c-5 -22 -8 -27 -9 -13 -1 21 9 56 14 51 2 -2 0 -19 -5 -38z
m-603 8 c-3 -8 -6 -5 -6 6 -1 11 2 17 5 13 3 -3 4 -12 1 -19z m1010 -15 c-3
-10 -5 -4 -5 12 0 17 2 24 5 18 2 -7 2 -21 0 -30z m10 -90 c-2 -16 -4 -5 -4
22 0 28 2 40 4 28 2 -13 2 -35 0 -50z m-1043 -17 c-3 -15 -8 -25 -11 -23 -2 3
-1 17 3 31 3 15 8 25 11 23 2 -3 1 -17 -3 -31z m623 2 c-3 -8 -6 -5 -6 6 -1
11 2 17 5 13 3 -3 4 -12 1 -19z m-757 -91 c0 -23 -18 9 -24 43 l-7 35 16 -34
c8 -18 15 -38 15 -44z m1185 -135 c-4 -62 -9 -111 -11 -109 -3 2 -1 67 3 143
4 77 9 126 11 109 2 -16 1 -81 -3 -143z m-1170 82 c3 -20 4 -39 1 -42 -3 -3
-6 4 -6 16 0 11 -4 24 -10 27 -12 8 -13 35 -1 35 5 0 12 -16 16 -36z m-244
-11 c13 -16 12 -17 -3 -4 -10 7 -18 15 -18 17 0 8 8 3 21 -13z m2096 -50 c8
-18 19 -31 23 -28 4 2 13 -14 20 -36 8 -22 18 -43 24 -47 13 -8 66 -117 66
-135 0 -18 -65 60 -105 126 -19 32 -32 63 -29 69 5 7 2 8 -6 3 -9 -5 -10 -2
-5 14 3 11 2 21 -3 21 -6 0 -10 17 -10 38 0 20 3 30 6 22 2 -8 11 -30 19 -47z
m-39 22 c-3 -3 -9 2 -12 12 -6 14 -5 15 5 6 7 -7 10 -15 7 -18z m-2590 -29 c2
-15 1 -35 -3 -44 -9 -25 -25 4 -25 46 0 41 23 39 28 -2z m805 9 c-7 -21 -12
-19 -10 4 0 11 5 18 9 15 4 -3 5 -11 1 -19z m-758 -5 c-10 -11 -22 -20 -27
-20 -4 0 -8 9 -8 20 0 15 7 20 27 20 25 0 26 0 8 -20z m2095 -50 c4 35 19 -28
18 -80 0 -40 -2 -48 -7 -30 -7 22 -9 20 -15 -20 -14 -88 -18 -101 -29 -97 -7
2 -12 17 -11 33 2 51 15 178 21 204 l6 25 7 -25 c5 -14 9 -18 10 -10z m-2262
-81 c11 -97 36 -174 52 -164 5 3 6 -3 4 -13 -3 -9 6 -39 20 -65 33 -62 33 -67
-4 -32 -16 15 -32 41 -36 58 -3 17 -19 60 -34 96 -16 36 -31 87 -35 113 -7 47
1 108 14 108 3 0 12 -45 19 -101z m342 51 c0 -5 -4 -10 -10 -10 -5 0 -10 5
-10 10 0 6 5 10 10 10 6 0 10 -4 10 -10z m194 -21 c24 -19 33 -51 13 -49 -4 0
-20 -6 -35 -13 -29 -14 -63 -12 -74 6 -4 6 -2 15 4 18 9 6 8 11 -1 22 -10 13
-9 17 6 26 28 16 58 13 87 -10z m-114 -9 c0 -5 -5 -10 -11 -10 -5 0 -7 5 -4
10 3 6 8 10 11 10 2 0 4 -4 4 -10z m1742 -34 c-9 -25 -18 -43 -20 -41 -6 5 21
85 28 85 4 0 0 -20 -8 -44z m-668 -7 c-8 -14 -31 -11 -37 5 -3 8 -1 17 6 19
15 6 39 -12 31 -24z m131 22 c7 -12 -12 -24 -25 -16 -11 7 -4 25 10 25 5 0 11
-4 15 -9z m120 -12 c51 -25 51 -82 1 -95 -60 -15 -119 57 -80 96 19 19 39 18
79 -1z m-230 -29 c3 -5 -1 -10 -9 -10 -9 0 -16 5 -16 10 0 6 4 10 9 10 6 0 13
-4 16 -10z m-1150 -21 c0 -7 -8 -15 -17 -17 -18 -3 -25 18 -11 32 10 10 28 1
28 -15z m195 -4 c0 -8 -7 -15 -15 -15 -8 0 -15 7 -15 15 0 8 7 15 15 15 8 0
15 -7 15 -15z m1717 -27 c-3 -7 -5 -2 -5 12 0 14 2 19 5 13 2 -7 2 -19 0 -25z
m-744 -22 c8 -19 -15 -37 -32 -26 -17 10 -7 40 13 40 7 0 16 -6 19 -14z m807
-51 c19 -56 20 -70 9 -102 -15 -49 -56 -129 -83 -166 -19 -26 -108 -97 -121
-97 -7 0 6 53 16 66 5 6 6 13 3 17 -7 7 57 137 67 137 4 0 20 37 34 81 20 58
30 77 37 68 6 -10 8 -5 7 16 -3 65 4 61 31 -20z m-570 25 c0 -5 -4 -10 -10
-10 -5 0 -10 5 -10 10 0 6 5 10 10 10 6 0 10 -4 10 -10z m-1710 -237 c0 -13 2
-13 16 -2 15 12 16 11 11 -6 -4 -11 -2 -27 3 -35 8 -12 10 -12 10 4 0 20 0 20
15 0 8 -10 15 -27 15 -36 0 -10 4 -18 8 -18 5 0 18 -18 31 -40 l22 -40 -33 20
c-58 34 -115 109 -110 146 2 12 -2 25 -7 29 -6 3 -11 18 -11 33 1 26 1 26 15
-7 8 -18 15 -40 15 -48z m2055 -65 c-7 -18 -16 -55 -19 -83 l-6 -50 16 43 c9
24 18 41 21 38 8 -8 -7 -76 -17 -76 -5 0 -15 -6 -22 -13 -17 -17 -115 -64
-150 -73 -36 -8 -35 2 4 57 40 54 52 64 103 90 36 17 37 19 10 14 -16 -3 -39
-8 -50 -12 -14 -3 -17 -2 -10 5 9 9 127 91 132 92 1 0 -4 -15 -12 -32z m621
-176 c11 -141 -1 -279 -29 -306 -11 -11 -17 -12 -19 -4 -2 6 -12 -11 -23 -38
-23 -62 -69 -148 -92 -172 -10 -11 -31 -35 -48 -55 -16 -20 -36 -37 -42 -37
-7 0 -13 -4 -13 -9 0 -5 -16 -7 -36 -5 -29 4 -43 -2 -74 -26 -37 -29 -78 -44
-52 -18 8 8 8 15 1 24 -8 10 -5 19 13 36 13 13 19 20 14 16 -6 -5 -16 -8 -24
-8 -7 0 20 39 61 88 41 48 93 116 116 152 77 122 87 131 90 80 0 -16 2 -43 2
-60 1 -18 -9 -45 -25 -68 -29 -42 -33 -62 -13 -62 18 0 83 114 113 201 22 62
27 102 34 239 5 91 9 169 9 175 1 5 7 3 13 -3 8 -8 17 -66 24 -140z m-266
-258 c-40 -79 -143 -208 -207 -259 -26 -22 -53 -46 -60 -55 -7 -8 -13 -11 -13
-6 0 13 151 238 185 273 16 18 39 49 50 70 11 21 22 40 26 43 3 3 9 14 13 25
l8 20 8 -20 c8 -18 9 -18 11 5 2 23 2 23 6 -4 3 -19 -6 -50 -27 -92z m-300
-34 c0 -16 4 -30 9 -30 13 0 11 -60 -2 -85 -13 -24 -23 -34 -67 -65 -19 -13
-48 -37 -65 -52 -20 -18 -32 -23 -37 -16 -3 7 -4 16 -2 20 3 4 0 8 -6 8 -8 0
-9 10 -5 30 8 39 -15 41 -40 4 -9 -14 -23 -33 -30 -42 -8 -9 -21 -26 -29 -37
-11 -15 -17 -17 -27 -8 -9 9 14 38 100 128 61 63 111 120 111 126 0 6 6 9 14
6 7 -3 23 5 35 19 28 32 41 30 41 -6z m100 -89 c0 -11 -7 -27 -16 -35 -8 -9
-13 -16 -9 -16 4 0 -2 -10 -12 -23 -10 -13 -21 -23 -24 -23 -4 1 -16 -8 -28
-18 -28 -26 -26 -12 5 43 46 80 84 112 84 72z m-2079 -18 c13 -16 12 -17 -3
-4 -17 13 -22 21 -14 21 2 0 10 -8 17 -17z m92 -94 c12 -12 1 -5 -25 16 -27
20 -48 41 -48 46 0 8 21 -10 73 -62z m181 -87 c15 3 15 5 -4 26 -29 31 -18 28
84 -23 50 -25 95 -45 102 -45 6 0 15 -7 18 -16 5 -13 0 -15 -36 -9 -82 14
-296 98 -312 123 -2 4 26 -8 64 -26 37 -19 75 -32 84 -30z m-3 -54 c46 -24
134 -39 274 -47 103 -6 108 -7 85 -21 -38 -22 -219 -20 -290 4 -92 32 -193 93
-230 140 -10 13 7 7 55 -19 39 -22 86 -47 106 -57z m393 -137 c8 -12 -39 -41
-66 -41 -13 0 -41 9 -63 20 l-40 20 50 -5 c28 -2 57 0 65 5 19 12 47 13 54 1z"/>
<path d="M1960 2611 c0 -6 4 -13 10 -16 6 -3 7 1 4 9 -7 18 -14 21 -14 7z"/>
<path d="M592 1975 c0 -16 2 -22 5 -12 2 9 2 23 0 30 -3 6 -5 -1 -5 -18z"/>
<path d="M1681 1711 c-10 -7 5 -9 45 -9 43 1 52 3 34 8 -35 11 -63 11 -79 1z"/>
<path d="M670 1700 c8 -5 20 -10 25 -10 6 0 3 5 -5 10 -8 5 -19 10 -25 10 -5
0 -3 -5 5 -10z"/>
<path d="M540 1273 c0 -4 5 -15 10 -23 8 -13 10 -13 10 2 0 9 -4 20 -10 23 -5
3 -10 3 -10 -2z"/>
<path d="M708 1183 c7 -3 16 -2 19 1 4 3 -2 6 -13 5 -11 0 -14 -3 -6 -6z"/>
<path d="M1070 980 c0 -14 5 -32 10 -40 8 -12 10 -10 10 10 0 14 -5 32 -10 40
-8 12 -10 10 -10 -10z"/>
<path d="M1945 834 c-19 -15 -22 -21 -9 -15 18 9 52 41 43 41 -2 0 -17 -12
-34 -26z"/>
<path d="M1058 678 c5 -5 16 -8 23 -6 8 3 3 7 -10 11 -17 4 -21 3 -13 -5z"/>
<path d="M1395 645 l-40 -13 41 -1 c22 -1 49 6 60 14 19 14 19 14 -1 14 -11 0
-38 -6 -60 -14z"/>
<path d="M2517 1073 l-17 -38 20 24 c11 13 20 29 20 37 0 22 -5 17 -23 -23z"/>
<path d="M785 3190 c-3 -5 -2 -10 4 -10 5 0 13 5 16 10 3 6 2 10 -4 10 -5 0
-13 -4 -16 -10z"/>
<path d="M13 2623 c9 -2 25 -2 35 0 9 3 1 5 -18 5 -19 0 -27 -2 -17 -5z"/>
<path d="M1 1081 c-1 -20 34 -91 44 -91 3 0 -4 19 -14 43 -10 23 -20 49 -24
57 -3 10 -6 7 -6 -9z"/>
</g>
</svg>
